<?xml version="1.0" encoding="UTF-8"?><svg xmlns="http://www.w3.org/2000/svg" version="1.1" width="1615" height="2185" viewBox="49.5 27 1614.2109375 2184.5"><rect x="49.5" y="27" width="1614.2109375" height="2184.5" fill="#ffffff"/><g id="excalidraw-content"><g data-frame="mm-flow-cluster-CLI"><rect x="1427.0546875" y="1277" width="218.15625" height="532" fill="none" stroke="#adb5bd" stroke-width="1" stroke-dasharray="6 4" rx="2" ry="2"/><text x="1427.0546875" y="1271" fill="#868e96" font-size="14" dominant-baseline="auto">excd CLI process (median)</text></g><g data-frame="mm-flow-cluster-Core"><rect x="507.70703125" y="1277" width="999.4140625" height="532" fill="none" stroke="#adb5bd" stroke-width="1" stroke-dasharray="6 4" rx="2" ry="2"/><text x="507.70703125" y="1271" fill="#868e96" font-size="14" dominant-baseline="auto">excalidraw-core (median)</text></g><g data-frame="mm-flow-cluster-MCP"><rect x="382.15234375" y="237.5" width="242.859375" height="459" fill="none" stroke="#adb5bd" stroke-width="1" stroke-dasharray="6 4" rx="2" ry="2"/><text x="382.15234375" y="231.5" fill="#868e96" font-size="14" dominant-baseline="auto">excd MCP stdio (median)</text></g><g data-frame="mm-flow-cluster-Mermaid"><rect x="382.15234375" y="746.5" width="698.3046875" height="459" fill="none" stroke="#adb5bd" stroke-width="1" stroke-dasharray="6 4" rx="2" ry="2"/><text x="382.15234375" y="740.5" fill="#868e96" font-size="14" dominant-baseline="auto">excalidraw-mermaid e2e (median)</text></g><g data-frame="mm-flow-cluster-Render"><rect x="1162.6953125" y="1405" width="210.5625" height="788" fill="none" stroke="#adb5bd" stroke-width="1" stroke-dasharray="6 4" rx="2" ry="2"/><text x="1162.6953125" y="1399" fill="#868e96" font-size="14" dominant-baseline="auto">excalidraw-render (median)</text></g><g><path d="M307.41 1044.71 L459.18 1047.35 L456.47 1122.96 L308.5 1124.93" stroke="none" stroke-width="0" fill="#e7f5ff"/><path d="M305.19 1046.71 C338.47 1043.73, 368.05 1043.34, 456.24 1046.55 M307.76 1045.77 C358.78 1047.11, 410.95 1047.46, 457.32 1046.51 M455.85 1047.01 C459.04 1062.5, 459.63 1075.55, 456.44 1125.67 M457.27 1045.37 C457.56 1065.14, 458.02 1084.76, 457.27 1124.95 M456.87 1122.63 C405.76 1126.88, 351.91 1124.19, 306.37 1124.49 M457.92 1123.83 C398.42 1123.27, 338.69 1122.32, 306.4 1123.95 M307.58 1123.68 C308.43 1103.96, 308.17 1083.46, 306.26 1045.47 M306.44 1124.62 C307.41 1095.96, 306 1068.59, 306.3 1047" stroke="#1e1e1e" stroke-width="2" fill="none"/></g><text x="382.15234375" y="1087.8" fill="#1e1e1e" font-family="Excalifont, cursive" font-size="16" text-anchor="middle" data-font-source="fallback:Excalifont"><tspan x="382.15234375" y="1087.8">parse simple&lt;br/&gt;11.8 us</tspan></text><g><path d="M298.03 1428.71 L468.56 1431.35 L465.85 1506.96 L299.11 1508.93" stroke="none" stroke-width="0" fill="#e7f5ff"/><path d="M295.81 1430.71 C332.95 1427.55, 366.4 1427.16, 465.62 1430.55 M298.38 1429.77 C355.92 1431.26, 414.61 1431.61, 466.7 1430.51 M465.23 1431.01 C468.42 1446.5, 469.01 1459.55, 465.82 1509.67 M466.66 1429.37 C466.94 1449.14, 467.4 1468.76, 466.65 1508.95 M466.26 1506.63 C408.49 1511, 348 1508.31, 296.99 1508.49 M467.3 1507.83 C400.39 1507.09, 333.24 1506.14, 297.02 1507.95 M298.2 1507.68 C299.05 1487.96, 298.79 1467.46, 296.88 1429.47 M297.05 1508.62 C298.03 1479.96, 296.62 1452.59, 296.91 1431" stroke="#1e1e1e" stroke-width="2" fill="none"/></g><text x="382.15234375" y="1471.8" fill="#1e1e1e" font-family="Excalifont, cursive" font-size="16" text-anchor="middle" data-font-source="fallback:Excalifont"><tspan x="382.15234375" y="1471.8">parse 200 elem&lt;br/&gt;915 us</tspan></text><g><path d="M791.07 1044.71 L974.93 1047.35 L972.22 1122.96 L792.16 1124.93" stroke="none" stroke-width="0" fill="#e7f5ff"/><path d="M788.85 1046.71 C828.74 1043.42, 864.93 1043.03, 972 1046.55 M791.42 1045.77 C853.6 1047.37, 916.92 1047.72, 973.07 1046.51 M971.6 1047.01 C974.8 1062.5, 975.38 1075.55, 972.19 1125.67 M973.03 1045.37 C973.31 1065.14, 973.78 1084.76, 973.03 1124.95 M972.63 1122.63 C910.15 1127.09, 844.93 1124.39, 790.03 1124.49 M973.67 1123.83 C901.5 1122.96, 829.08 1122.01, 790.06 1123.95 M791.24 1123.68 C792.09 1103.96, 791.83 1083.46, 789.92 1045.47 M790.1 1124.62 C791.07 1095.96, 789.66 1068.59, 789.96 1047" stroke="#1e1e1e" stroke-width="2" fill="none"/></g><text x="881.859375" y="1087.8" fill="#1e1e1e" font-family="Excalifont, cursive" font-size="16" text-anchor="middle" data-font-source="fallback:Excalifont"><tspan x="881.859375" y="1087.8">normalize simple&lt;br/&gt;3.9 us</tspan></text><g><path d="M781.69 1428.71 L984.32 1431.35 L981.61 1506.96 L782.77 1508.93" stroke="none" stroke-width="0" fill="#e7f5ff"/><path d="M779.65 1430.64 C823.17 1427.53, 863.37 1427.18, 981.48 1430.5 M781.96 1429.79 C850.78 1431.36, 920.62 1431.67, 982.45 1430.46 M980.99 1431.01 C984.18 1446.5, 984.76 1459.55, 981.58 1509.67 M982.41 1429.37 C982.7 1449.14, 983.16 1468.76, 982.41 1508.95 M982.05 1506.77 C912.71 1510.88, 840.92 1508.46, 780.71 1508.44 M982.99 1507.85 C903.41 1506.9, 823.62 1506.05, 780.74 1507.95 M781.86 1507.68 C782.71 1487.96, 782.45 1467.46, 780.54 1429.47 M780.71 1508.62 C781.69 1479.96, 780.28 1452.59, 780.57 1431" stroke="#1e1e1e" stroke-width="2" fill="none"/></g><text x="881.859375" y="1471.8" fill="#1e1e1e" font-family="Excalifont, cursive" font-size="16" text-anchor="middle" data-font-source="fallback:Excalifont"><tspan x="881.859375" y="1471.8">normalize 200 elem&lt;br/&gt;303 us</tspan></text><g><path d="M1089.55 1044.71 L1238.13 1047.35 L1235.42 1122.96 L1090.63 1124.93" stroke="none" stroke-width="0" fill="#e7f5ff"/><path d="M1087.33 1046.71 C1119.95 1043.76, 1148.87 1043.37, 1235.19 1046.55 M1089.9 1045.77 C1139.81 1047.09, 1190.87 1047.43, 1236.27 1046.51 M1234.8 1047.01 C1237.99 1062.5, 1238.57 1075.55, 1235.39 1125.67 M1236.22 1045.37 C1236.51 1065.14, 1236.97 1084.76, 1236.22 1124.95 M1235.82 1122.63 C1185.83 1126.86, 1133.11 1124.17, 1088.51 1124.49 M1236.87 1123.83 C1178.63 1123.3, 1120.16 1122.35, 1088.54 1123.95 M1089.72 1123.68 C1090.57 1103.96, 1090.31 1083.46, 1088.4 1045.47 M1088.57 1124.62 C1089.55 1095.96, 1088.14 1068.59, 1088.43 1047" stroke="#1e1e1e" stroke-width="2" fill="none"/></g><text x="1162.6953125" y="1087.8" fill="#1e1e1e" font-family="Excalifont, cursive" font-size="16" text-anchor="middle" data-font-source="fallback:Excalifont"><tspan x="1162.6953125" y="1087.8">svg simple 3&lt;br/&gt;7.4 ms</tspan></text><g><path d="M1082.8 1236.71 L1244.88 1239.35 L1242.17 1314.96 L1083.88 1316.93" stroke="none" stroke-width="0" fill="#e7f5ff"/><path d="M1080.58 1238.71 C1115.98 1235.63, 1147.68 1235.24, 1241.94 1238.55 M1083.15 1237.77 C1137.75 1239.19, 1193.5 1239.54, 1243.02 1238.51 M1241.55 1239.01 C1244.74 1254.5, 1245.32 1267.55, 1242.14 1317.67 M1242.97 1237.37 C1243.26 1257.14, 1243.72 1276.76, 1242.97 1316.95 M1242.57 1314.63 C1187.8 1318.95, 1130.3 1316.25, 1081.76 1316.49 M1243.62 1315.83 C1180.05 1315.17, 1116.24 1314.22, 1081.79 1315.95 M1082.97 1315.68 C1083.82 1295.96, 1083.56 1275.46, 1081.65 1237.47 M1081.82 1316.62 C1082.8 1287.96, 1081.39 1260.59, 1081.68 1239" stroke="#1e1e1e" stroke-width="2" fill="none"/></g><text x="1162.6953125" y="1279.8" fill="#1e1e1e" font-family="Excalifont, cursive" font-size="16" text-anchor="middle" data-font-source="fallback:Excalifont"><tspan x="1162.6953125" y="1279.8">svg complex 8&lt;br/&gt;14.8 ms</tspan></text><g><path d="M1086.44 1428.71 L1241.24 1431.35 L1238.53 1506.96 L1087.52 1508.93" stroke="none" stroke-width="0" fill="#e7f5ff"/><path d="M1084.22 1430.71 C1118.12 1427.7, 1148.32 1427.31, 1238.3 1430.55 M1086.79 1429.77 C1138.86 1431.14, 1192.09 1431.48, 1239.38 1430.51 M1237.91 1431.01 C1241.1 1446.5, 1241.68 1459.55, 1238.5 1509.67 M1239.33 1429.37 C1239.62 1449.14, 1240.08 1468.76, 1239.33 1508.95 M1238.93 1506.63 C1186.74 1510.9, 1131.82 1508.21, 1085.4 1508.49 M1239.97 1507.83 C1179.28 1507.24, 1118.35 1506.29, 1085.43 1507.95 M1086.61 1507.68 C1087.46 1487.96, 1087.2 1467.46, 1085.29 1429.47 M1085.46 1508.62 C1086.44 1479.96, 1085.03 1452.59, 1085.32 1431" stroke="#1e1e1e" stroke-width="2" fill="none"/></g><text x="1162.6953125" y="1471.8" fill="#1e1e1e" font-family="Excalifont, cursive" font-size="16" text-anchor="middle" data-font-source="fallback:Excalifont"><tspan x="1162.6953125" y="1471.8">svg large 200&lt;br/&gt;35.2 ms</tspan></text><g><path d="M1087.88 1556.71 L1239.8 1559.35 L1237.09 1634.96 L1088.96 1636.93" stroke="none" stroke-width="0" fill="#e7f5ff"/><path d="M1085.65 1558.71 C1118.97 1555.73, 1148.58 1555.34, 1236.86 1558.55 M1088.23 1557.77 C1139.3 1559.11, 1191.52 1559.46, 1237.94 1558.51 M1236.47 1559.01 C1239.66 1574.5, 1240.25 1587.55, 1237.06 1637.67 M1237.89 1557.37 C1238.18 1577.14, 1238.64 1596.76, 1237.89 1636.95 M1237.49 1634.63 C1186.32 1638.88, 1132.42 1636.19, 1086.83 1636.49 M1238.54 1635.83 C1178.98 1635.27, 1119.19 1634.32, 1086.87 1635.95 M1088.04 1635.68 C1088.9 1615.96, 1088.63 1595.46, 1086.73 1557.47 M1086.9 1636.62 C1087.87 1607.96, 1086.47 1580.59, 1086.76 1559" stroke="#1e1e1e" stroke-width="2" fill="none"/></g><text x="1162.6953125" y="1599.8" fill="#1e1e1e" font-family="Excalifont, cursive" font-size="16" text-anchor="middle" data-font-source="fallback:Excalifont"><tspan x="1162.6953125" y="1599.8">png simple 3&lt;br/&gt;10.0 ms</tspan></text><g><path d="M1084.77 1684.71 L1242.91 1687.35 L1240.2 1762.96 L1085.85 1764.93" stroke="none" stroke-width="0" fill="#e7f5ff"/><path d="M1082.54 1686.71 C1117.14 1683.67, 1148.03 1683.28, 1239.97 1686.55 M1085.12 1685.77 C1138.35 1687.16, 1192.74 1687.51, 1241.05 1686.51 M1239.58 1687.01 C1242.77 1702.5, 1243.36 1715.55, 1240.17 1765.67 M1241 1685.37 C1241.29 1705.14, 1241.75 1724.76, 1241 1764.95 M1240.6 1762.63 C1187.23 1766.92, 1131.12 1764.23, 1083.73 1764.49 M1241.65 1763.83 C1179.63 1763.21, 1117.38 1762.26, 1083.76 1763.95 M1084.94 1763.68 C1085.79 1743.96, 1085.52 1723.46, 1083.62 1685.47 M1083.79 1764.62 C1084.76 1735.96, 1083.36 1708.59, 1083.65 1687" stroke="#1e1e1e" stroke-width="2" fill="none"/></g><text x="1162.6953125" y="1727.8" fill="#1e1e1e" font-family="Excalifont, cursive" font-size="16" text-anchor="middle" data-font-source="fallback:Excalifont"><tspan x="1162.6953125" y="1727.8">png large 200&lt;br/&gt;101.6 ms</tspan></text><g><path d="M83.36 553.21 L246.02 555.85 L243.31 631.46 L84.45 633.43" stroke="none" stroke-width="0" fill="#e7f5ff"/><path d="M81.14 555.21 C116.66 552.13, 148.48 551.74, 243.08 555.05 M83.71 554.27 C138.52 555.7, 194.47 556.05, 244.16 555.01 M242.69 555.51 C245.88 571, 246.47 584.05, 243.28 634.17 M244.11 553.87 C244.4 573.64, 244.86 593.26, 244.11 633.45 M243.71 631.13 C188.74 635.45, 131.03 632.76, 82.32 632.99 M244.76 632.33 C180.96 631.67, 116.93 630.72, 82.35 632.45 M83.53 632.18 C84.38 612.46, 84.12 591.96, 82.21 553.97 M82.38 633.12 C83.36 604.46, 81.95 577.09, 82.25 555.5" stroke="#1e1e1e" stroke-width="2" fill="none"/></g><text x="163.546875" y="596.3" fill="#1e1e1e" font-family="Excalifont, cursive" font-size="16" text-anchor="middle" data-font-source="fallback:Excalifont"><tspan x="163.546875" y="596.3">flowchart tiny&lt;br/&gt;1.55 ms</tspan></text><g><path d="M68.39 706.21 L261 708.85 L258.29 784.46 L69.47 786.43" stroke="none" stroke-width="0" fill="#e7f5ff"/><path d="M66.16 708.21 C107.86 704.84, 145.85 704.45, 258.06 708.05 M68.73 707.27 C133.95 708.94, 200.31 709.29, 259.13 708.01 M257.67 708.51 C260.86 724, 261.44 737.05, 258.26 787.17 M259.09 706.87 C259.38 726.64, 259.84 746.26, 259.09 786.45 M258.69 784.13 C193.11 788.64, 124.8 785.95, 67.34 785.99 M259.73 785.33 C184.1 784.38, 108.23 783.43, 67.38 785.45 M68.55 785.18 C69.41 765.46, 69.14 744.96, 67.24 706.97 M67.41 786.12 C68.38 757.46, 66.98 730.09, 67.27 708.5" stroke="#1e1e1e" stroke-width="2" fill="none"/></g><text x="163.546875" y="749.3" fill="#1e1e1e" font-family="Excalifont, cursive" font-size="16" text-anchor="middle" data-font-source="fallback:Excalifont"><tspan x="163.546875" y="749.3">flowchart medium&lt;br/&gt;16.2 ms</tspan></text><g><path d="M79.08 859.21 L250.3 861.85 L247.59 937.46 L80.16 939.43" stroke="none" stroke-width="0" fill="#e7f5ff"/><path d="M76.86 861.21 C114.15 858.04, 147.73 857.65, 247.36 861.05 M79.43 860.27 C137.21 861.77, 196.14 862.11, 248.44 861.01 M246.97 861.51 C250.16 877, 250.75 890.05, 247.56 940.17 M248.39 859.87 C248.68 879.64, 249.14 899.26, 248.39 939.45 M247.99 937.13 C189.99 941.51, 129.25 938.81, 78.04 938.99 M249.04 938.33 C181.86 937.58, 114.44 936.63, 78.07 938.45 M79.25 938.18 C80.1 918.46, 79.84 897.96, 77.93 859.97 M78.1 939.12 C79.08 910.46, 77.67 883.09, 77.97 861.5" stroke="#1e1e1e" stroke-width="2" fill="none"/></g><text x="163.546875" y="902.3" fill="#1e1e1e" font-family="Excalifont, cursive" font-size="16" text-anchor="middle" data-font-source="fallback:Excalifont"><tspan x="163.546875" y="902.3">flowchart large&lt;br/&gt;70.6 ms</tspan></text><g><path d="M298.78 859.21 L489.58 861.85 L486.87 937.46 L299.87 939.43" stroke="none" stroke-width="0" fill="#e7f5ff"/><path d="M296.56 861.21 C337.88 857.86, 375.5 857.47, 486.64 861.05 M299.13 860.27 C363.72 861.92, 429.45 862.27, 487.72 861.01 M486.25 861.51 C489.44 877, 490.03 890.05, 486.84 940.17 M487.67 859.87 C487.96 879.64, 488.42 899.26, 487.67 939.45 M487.28 937.13 C422.34 941.63, 354.67 938.94, 297.74 938.99 M488.32 938.33 C413.4 937.39, 338.25 936.45, 297.77 938.45 M298.95 938.18 C299.8 918.46, 299.54 897.96, 297.64 859.97 M297.81 939.12 C298.78 910.46, 297.37 883.09, 297.67 861.5" stroke="#1e1e1e" stroke-width="2" fill="none"/></g><text x="393.0390625" y="902.3" fill="#1e1e1e" font-family="Excalifont, cursive" font-size="16" text-anchor="middle" data-font-source="fallback:Excalifont"><tspan x="393.0390625" y="902.3">sequence medium&lt;br/&gt;6.2 ms</tspan></text><g><path d="M538.06 859.21 L698.21 861.85 L695.5 937.46 L539.15 939.43" stroke="none" stroke-width="0" fill="#e7f5ff"/><path d="M535.84 861.21 C570.85 858.15, 602.15 857.76, 695.27 861.05 M538.41 860.27 C592.35 861.68, 647.42 862.03, 696.34 861.01 M694.88 861.51 C698.07 877, 698.65 890.05, 695.47 940.17 M696.3 859.87 C696.59 879.64, 697.05 899.26, 696.3 939.45 M695.9 937.13 C641.82 941.44, 585 938.74, 537.02 938.99 M696.94 938.33 C634.14 937.69, 571.1 936.74, 537.06 938.45 M538.23 938.18 C539.09 918.46, 538.82 897.96, 536.92 859.97 M537.09 939.12 C538.06 910.46, 536.66 883.09, 536.95 861.5" stroke="#1e1e1e" stroke-width="2" fill="none"/></g><text x="616.9921875" y="902.3" fill="#1e1e1e" font-family="Excalifont, cursive" font-size="16" text-anchor="middle" data-font-source="fallback:Excalifont"><tspan x="616.9921875" y="902.3">state medium&lt;br/&gt;15.2 ms</tspan></text><g><path d="M1366.3 1044.71 L1490.1 1047.35 L1487.39 1122.96 L1367.38 1124.93" stroke="none" stroke-width="0" fill="#e7f5ff"/><path d="M1364.08 1046.71 C1391.59 1044, 1415.41 1043.61, 1487.16 1046.55 M1366.65 1045.77 C1407.95 1046.89, 1450.4 1047.24, 1488.23 1046.51 M1486.77 1047.01 C1489.96 1062.5, 1490.54 1075.55, 1487.36 1125.67 M1488.19 1045.37 C1488.48 1065.14, 1488.94 1084.76, 1488.19 1124.95 M1487.79 1122.63 C1446.58 1126.7, 1402.63 1124.01, 1365.26 1124.49 M1488.83 1123.83 C1440.39 1123.54, 1391.71 1122.59, 1365.29 1123.95 M1366.47 1123.68 C1367.32 1103.96, 1367.06 1083.46, 1365.15 1045.47 M1365.32 1124.62 C1366.3 1095.96, 1364.89 1068.59, 1365.18 1047" stroke="#1e1e1e" stroke-width="2" fill="none"/></g><text x="1427.0546875" y="1087.8" fill="#1e1e1e" font-family="Excalifont, cursive" font-size="16" text-anchor="middle" data-font-source="fallback:Excalifont"><tspan x="1427.0546875" y="1087.8">info json&lt;br/&gt;8.7 ms</tspan></text><g><path d="M1350.1 1172.71 L1506.29 1175.35 L1503.58 1250.96 L1351.19 1252.93" stroke="none" stroke-width="0" fill="#e7f5ff"/><path d="M1347.88 1174.71 C1382.07 1171.69, 1412.56 1171.3, 1503.35 1174.55 M1350.45 1173.77 C1403.01 1175.15, 1456.72 1175.5, 1504.43 1174.51 M1502.96 1175.01 C1506.16 1190.5, 1506.74 1203.55, 1503.55 1253.67 M1504.39 1173.37 C1504.67 1193.14, 1505.14 1212.76, 1504.38 1252.95 M1503.99 1250.63 C1451.3 1254.91, 1395.89 1252.22, 1349.06 1252.49 M1505.03 1251.83 C1443.79 1251.23, 1382.31 1250.28, 1349.09 1251.95 M1350.27 1251.68 C1351.12 1231.96, 1350.86 1211.46, 1348.96 1173.47 M1349.13 1252.62 C1350.1 1223.96, 1348.69 1196.59, 1348.99 1175" stroke="#1e1e1e" stroke-width="2" fill="none"/></g><text x="1427.0546875" y="1215.8" fill="#1e1e1e" font-family="Excalifont, cursive" font-size="16" text-anchor="middle" data-font-source="fallback:Excalifont"><tspan x="1427.0546875" y="1215.8">to-svg simple&lt;br/&gt;35.7 ms</tspan></text><g><path d="M1343.36 1300.71 L1513.04 1303.35 L1510.33 1378.96 L1344.45 1380.93" stroke="none" stroke-width="0" fill="#e7f5ff"/><path d="M1341.14 1302.71 C1378.11 1299.56, 1411.38 1299.17, 1510.1 1302.55 M1343.71 1301.77 C1400.96 1303.25, 1459.34 1303.6, 1511.17 1302.51 M1509.71 1303.01 C1512.9 1318.5, 1513.48 1331.55, 1510.3 1381.67 M1511.13 1301.37 C1511.42 1321.14, 1511.88 1340.76, 1511.13 1380.95 M1510.73 1378.63 C1453.27 1383, 1393.08 1380.3, 1342.32 1380.49 M1511.77 1379.83 C1445.2 1379.1, 1378.4 1378.15, 1342.35 1379.95 M1343.53 1379.68 C1344.38 1359.96, 1344.12 1339.46, 1342.21 1301.47 M1342.38 1380.62 C1343.36 1351.96, 1341.95 1324.59, 1342.25 1303" stroke="#1e1e1e" stroke-width="2" fill="none"/></g><text x="1427.0546875" y="1343.8" fill="#1e1e1e" font-family="Excalifont, cursive" font-size="16" text-anchor="middle" data-font-source="fallback:Excalifont"><tspan x="1427.0546875" y="1343.8">to-svg complex&lt;br/&gt;34.2 ms</tspan></text><g><path d="M1355.39 1428.71 L1501.01 1431.35 L1498.3 1506.96 L1356.47 1508.93" stroke="none" stroke-width="0" fill="#e7f5ff"/><path d="M1353.16 1430.71 C1385.18 1427.79, 1413.49 1427.4, 1498.07 1430.55 M1355.73 1429.77 C1404.62 1431.06, 1454.66 1431.41, 1499.15 1430.51 M1497.68 1431.01 C1500.87 1446.5, 1501.46 1459.55, 1498.27 1509.67 M1499.1 1429.37 C1499.39 1449.14, 1499.85 1468.76, 1499.1 1508.95 M1498.71 1506.63 C1449.76 1510.84, 1398.09 1508.15, 1354.34 1508.49 M1499.75 1507.83 C1442.68 1507.33, 1385.38 1506.38, 1354.38 1507.95 M1355.55 1507.68 C1356.41 1487.96, 1356.14 1467.46, 1354.24 1429.47 M1354.41 1508.62 C1355.38 1479.96, 1353.98 1452.59, 1354.27 1431" stroke="#1e1e1e" stroke-width="2" fill="none"/></g><text x="1427.0546875" y="1471.8" fill="#1e1e1e" font-family="Excalifont, cursive" font-size="16" text-anchor="middle" data-font-source="fallback:Excalifont"><tspan x="1427.0546875" y="1471.8">to-svg large&lt;br/&gt;67.9 ms</tspan></text><g><path d="M296.11 44.21 L470.48 46.85 L467.78 122.46 L297.19 124.43" stroke="none" stroke-width="0" fill="#e7f5ff"/><path d="M293.88 46.21 C331.82 43.01, 366.06 42.62, 467.55 46.05 M296.46 45.27 C355.34 46.79, 415.36 47.14, 468.62 46.01 M467.16 46.51 C470.35 62, 470.93 75.05, 467.74 125.17 M468.58 44.87 C468.86 64.64, 469.33 84.26, 468.58 124.45 M468.18 122.13 C409.06 126.53, 347.2 123.83, 295.07 123.99 M469.22 123.33 C400.79 122.55, 332.13 121.6, 295.1 123.45 M296.27 123.18 C297.13 103.46, 296.86 82.96, 294.96 44.97 M295.13 124.12 C296.1 95.46, 294.7 68.09, 294.99 46.5" stroke="#1e1e1e" stroke-width="2" fill="none"/></g><text x="382.15234375" y="87.3" fill="#1e1e1e" font-family="Excalifont, cursive" font-size="16" text-anchor="middle" data-font-source="fallback:Excalifont"><tspan x="382.15234375" y="87.3">parse_elements&lt;br/&gt;16.0 ms</tspan></text><g><path d="M297.8 197.21 L468.79 199.85 L466.08 275.46 L298.89 277.43" stroke="none" stroke-width="0" fill="#e7f5ff"/><path d="M295.58 199.21 C332.82 196.05, 366.36 195.66, 465.85 199.05 M298.15 198.27 C355.85 199.77, 414.7 200.11, 466.93 199.01 M465.46 199.51 C468.65 215, 469.23 228.05, 466.05 278.17 M466.88 197.87 C467.17 217.64, 467.63 237.26, 466.88 277.45 M466.48 275.13 C408.56 279.5, 347.9 276.81, 296.76 276.99 M467.53 276.33 C400.44 275.58, 333.11 274.64, 296.79 276.45 M297.97 276.18 C298.82 256.46, 298.56 235.96, 296.66 197.97 M296.83 277.12 C297.8 248.46, 296.39 221.09, 296.69 199.5" stroke="#1e1e1e" stroke-width="2" fill="none"/></g><text x="382.15234375" y="240.3" fill="#1e1e1e" font-family="Excalifont, cursive" font-size="16" text-anchor="middle" data-font-source="fallback:Excalifont"><tspan x="382.15234375" y="240.3">describe_scene&lt;br/&gt;17.8 ms</tspan></text><g><path d="M303.11 350.21 L463.48 352.85 L460.78 428.46 L304.19 430.43" stroke="none" stroke-width="0" fill="#e7f5ff"/><path d="M300.88 352.21 C335.94 349.15, 367.29 348.76, 460.55 352.05 M303.46 351.27 C357.47 352.68, 412.63 353.03, 461.62 352.01 M460.16 352.51 C463.35 368, 463.93 381.05, 460.74 431.17 M461.58 350.87 C461.86 370.64, 462.33 390.26, 461.58 430.45 M461.18 428.13 C407.01 432.44, 350.11 429.74, 302.07 429.99 M462.22 429.33 C399.33 428.69, 336.19 427.74, 302.1 429.45 M303.27 429.18 C304.13 409.46, 303.86 388.96, 301.96 350.97 M302.13 430.12 C303.1 401.46, 301.7 374.09, 301.99 352.5" stroke="#1e1e1e" stroke-width="2" fill="none"/></g><text x="382.15234375" y="393.3" fill="#1e1e1e" font-family="Excalifont, cursive" font-size="16" text-anchor="middle" data-font-source="fallback:Excalifont"><tspan x="382.15234375" y="393.3">validate large&lt;br/&gt;20.1 ms</tspan></text><g id="mm-flow-edge-L_P1_N1_0" data-start-binding="mm-flow-node-P1" data-end-binding="mm-flow-node-N1"><path d="M461.27734375 1085 L756.3046875 1085 L786.6875 1085" stroke="#1e1e1e" stroke-width="2" fill="none"/><path d="M774.6875 1090.4 L786.6875 1085 M786.6875 1085 L774.6875 1079.6" stroke="#1e1e1e" stroke-width="2" fill="none"/></g><g id="mm-flow-edge-L_N1_S1_0" data-start-binding="mm-flow-node-N1" data-end-binding="mm-flow-node-S1"><path d="M977.03125 1085 L1007.4140625 1085 L1032.4140625 1085 L1057.4140625 1085 L1085.1640625 1085" stroke="#1e1e1e" stroke-width="2" fill="none"/><path d="M1073.1640625 1090.4 L1085.1640625 1085 M1085.1640625 1085 L1073.1640625 1079.6" stroke="#1e1e1e" stroke-width="2" fill="none"/></g><g id="mm-flow-edge-L_S1_C1_0" data-start-binding="mm-flow-node-S1" data-end-binding="mm-flow-node-C1"><path d="M1240.2265625 1085 L1267.9765625 1085 L1292.9765625 1085 L1317.9765625 1085 L1361.9140625 1085" stroke="#1e1e1e" stroke-width="2" fill="none"/><path d="M1349.9140625 1090.4 L1361.9140625 1085 M1361.9140625 1085 L1349.9140625 1079.6" stroke="#1e1e1e" stroke-width="2" fill="none"/></g><g id="mm-flow-edge-L_P2_N2_0" data-start-binding="mm-flow-node-P2" data-end-binding="mm-flow-node-N2"><path d="M470.66015625 1469 L756.3046875 1469 L777.3046875 1469" stroke="#1e1e1e" stroke-width="2" fill="none"/><path d="M765.3046875 1474.4 L777.3046875 1469 M777.3046875 1469 L765.3046875 1463.6" stroke="#1e1e1e" stroke-width="2" fill="none"/></g><g id="mm-flow-edge-L_N2_S3_0" data-start-binding="mm-flow-node-N2" data-end-binding="mm-flow-node-S3"><path d="M986.4140625 1469 L1007.4140625 1469 L1032.4140625 1469 L1057.4140625 1469 L1082.0546875 1469" stroke="#1e1e1e" stroke-width="2" fill="none"/><path d="M1070.0546875 1474.4 L1082.0546875 1469 M1082.0546875 1469 L1070.0546875 1463.6" stroke="#1e1e1e" stroke-width="2" fill="none"/></g><g id="mm-flow-edge-L_S3_C4_0" data-start-binding="mm-flow-node-S3" data-end-binding="mm-flow-node-C4"><path d="M1243.3359375 1469 L1267.9765625 1469 L1292.9765625 1469 L1317.9765625 1469 L1351 1469" stroke="#1e1e1e" stroke-width="2" fill="none"/><path d="M1339 1474.4 L1351 1469 M1351 1469 L1339 1463.6" stroke="#1e1e1e" stroke-width="2" fill="none"/></g><g id="mm-flow-edge-L_M1_M2_0" data-start-binding="mm-flow-node-M1" data-end-binding="mm-flow-node-M2"><path d="M163.546875 636.5 L163.546875 670 L163.546875 703.5" stroke="#1e1e1e" stroke-width="2" fill="none"/><path d="M158.146875 691.5 L163.546875 703.5 M163.546875 703.5 L168.946875 691.5" stroke="#1e1e1e" stroke-width="2" fill="none"/></g><g id="mm-flow-edge-L_M2_M3_0" data-start-binding="mm-flow-node-M2" data-end-binding="mm-flow-node-M3"><path d="M163.546875 789.5 L163.546875 823 L163.546875 856.5" stroke="#1e1e1e" stroke-width="2" fill="none"/><path d="M158.146875 844.5 L163.546875 856.5 M163.546875 856.5 L168.946875 844.5" stroke="#1e1e1e" stroke-width="2" fill="none"/></g><g id="mm-flow-edge-L_X1_X2_0" data-start-binding="mm-flow-node-X1" data-end-binding="mm-flow-node-X2"><path d="M382.15234375 127.5 L382.15234375 161 L382.15234375 194.5" stroke="#1e1e1e" stroke-width="2" fill="none"/><path d="M376.75234375 182.5 L382.15234375 194.5 M382.15234375 194.5 L387.55234375 182.5" stroke="#1e1e1e" stroke-width="2" fill="none"/></g><g id="mm-flow-edge-L_X2_X3_0" data-start-binding="mm-flow-node-X2" data-end-binding="mm-flow-node-X3"><path d="M382.15234375 280.5 L382.15234375 314 L382.15234375 347.5" stroke="#1e1e1e" stroke-width="2" fill="none"/><path d="M376.75234375 335.5 L382.15234375 347.5 M382.15234375 347.5 L387.55234375 335.5" stroke="#1e1e1e" stroke-width="2" fill="none"/></g></g></svg>